<svg id="Capa_1" data-name="Capa 1" xmlns="http://www.w3.org/2000/svg" viewBox="0 0 1080 1080"><defs><style>.cls-1{fill:#f7931e;fill-rule:evenodd;}</style></defs><path class="cls-1" d="M573.93,228s15.43-18,44.63-10.84c41.82,10.26,65,71.75,75.89,106.47,14.92,47.62,22.49,114.65-5.16,194.33-56.4,162.56-245.73,243.95-245.73,243.95s185.52-103.83,228.14-256c26.35-94.09,1.92-167.59-20.59-210C596.9,477.3,293.37,533.16,210.32,953.58c91.73-107.82,225.16-114.05,326.5-192.64,105.86-82.1,187.67-184.19,195.68-319.79,10.42,188.77-125.63,303.13-213.92,374,0,0,234.47-90.05,319.33-267.47,33.17-69.37,35.36-121.22,25.71-158.67,6.33-34.14,9.42-76.28.62-118.67-22.29-107.35-132.7-189.14-239-115.9-6.87,4.74-55.8,11.05-51.35,73.62Z"/></svg>