<svg id="Capa_1" data-name="Capa 1" xmlns="http://www.w3.org/2000/svg" viewBox="0 0 1080 1080"><defs><style>.cls-1{font-size:113.77px;font-family:Montserrat-Black, Montserrat;font-weight:800;letter-spacing:0.08em;}.cls-1,.cls-10,.cls-4,.cls-9{fill:#fff;}.cls-2{letter-spacing:0.07em;}.cls-3{letter-spacing:0.06em;}.cls-4{font-size:33.18px;font-family:Montserrat-ExtraLight, Montserrat;font-weight:200;letter-spacing:1em;}.cls-5{letter-spacing:0.99em;}.cls-6{letter-spacing:0.99em;}.cls-7{letter-spacing:1em;}.cls-8{letter-spacing:0.99em;}.cls-9{fill-rule:evenodd;}</style></defs><text class="cls-1" transform="translate(172.92 972.26)">HA<tspan class="cls-2" x="200.24" y="0">L</tspan><tspan class="cls-3" x="277.83" y="0">C</tspan><tspan x="369.3" y="0">ONES</tspan></text><text class="cls-4" transform="translate(255.14 861.9)">UN<tspan class="cls-5" x="119.72" y="0">I</tspan><tspan class="cls-6" x="162.23" y="0">V</tspan><tspan class="cls-7" x="217.38" y="0">ERSI</tspan><tspan class="cls-8" x="425.77" y="0">D</tspan><tspan x="486.03" y="0">AD</tspan></text><path class="cls-9" d="M529.75,374s2.84-3.32,8.23-2c7.71,1.89,12,13.23,14,19.63,2.75,8.78,4.15,21.14-1,35.83-10.4,30-45.31,45-45.31,45s34.21-19.14,42.07-47.2c4.85-17.34.35-30.9-3.8-38.72-10,33.45-66,43.75-81.27,121.26,16.91-19.88,41.51-21,60.2-35.52,19.51-15.13,34.6-34,36.07-59,1.92,34.81-23.16,55.89-39.44,69,0,0,43.23-16.6,58.88-49.31,6.11-12.79,6.52-22.35,4.74-29.26a57.62,57.62,0,0,0,.11-21.88c-4.11-19.79-24.46-34.87-44-21.36-1.27.87-10.29,2-9.47,13.57Z"/><path class="cls-10" d="M774.83,473.27C755,585,657.43,669.9,540,669.9S325,585,305.17,473.27H201.44C222.08,641.91,365.79,772.51,540,772.51s317.92-130.6,338.56-299.24Z"/><path class="cls-10" d="M304.65,392.67C323.15,279.37,421.47,192.9,540,192.9s216.85,86.47,235.35,199.77H878.94C859.7,222.51,715.3,90.29,540,90.29S220.3,222.51,201.07,392.67Z"/><path class="cls-10" d="M710.74,359.92a186.52,186.52,0,0,0-40.08-59.44q-5.25-5.25-10.85-10l-3.74,4A181.24,181.24,0,0,1,720,432.72c0,76.39-47.42,141.9-114.37,168.68-15,5.49-23.16,4.42-36.18,2.71a242.72,242.72,0,0,0-34.4-2.48c-41.8,0-63.72,32.3-64.63,33.67l4.72,3.14c.21-.31,21.22-31.15,59.91-31.15a237.18,237.18,0,0,1,33.66,2.44c12.08,1.58,20.68,2.71,34.16-1.42h0c2.44-.75,5-1.67,7.83-2.78l-.1-.26.59-.24a187.24,187.24,0,0,0,99.52-245.11Z"/><path class="cls-10" d="M615.43,591.93s21.06-15.08,39,14.66C636.18,613.32,624.27,609.54,615.43,591.93Z"/><path class="cls-10" d="M624.41,555.72s-25.26,16.1-5.07,42.76C634.78,586.6,634.6,572.59,624.41,555.72Z"/><path class="cls-10" d="M642.17,576.3s18.14-18.5,41,7.69C666.31,593.78,653.93,592.12,642.17,576.3Z"/><path class="cls-10" d="M644.77,539.08s-22.11,20.22,2.38,43C660.31,567.71,657.71,553.94,644.77,539.08Z"/><path class="cls-10" d="M665.81,556.28s14.67-21.35,41.69.5C692.6,569.33,680.12,569.83,665.81,556.28Z"/><path class="cls-10" d="M661.93,519.17s-18.27,23.74,9.78,41.94C682.19,544.69,677.25,531.57,661.93,519.17Z"/><path class="cls-10" d="M685.64,532.48s10.75-23.56,41.14-6.71C714.28,540.71,702.07,543.35,685.64,532.48Z"/><path class="cls-10" d="M675.41,496.6s-13.9,26.54,16.88,39.62C699.77,518.23,692.64,506.17,675.41,496.6Z"/><path class="cls-10" d="M701.05,505.61s6.53-25.07,39.37-13.72C730.69,508.76,719.12,513.48,701.05,505.61Z"/><path class="cls-10" d="M684.78,472s-9.11,28.54,23.47,36.1C712.51,489.13,703.4,478.48,684.78,472Z"/><path class="cls-10" d="M711.59,476.48s2.09-25.81,36.41-20.31C741.32,474.47,730.75,481.11,711.59,476.48Z"/><path class="cls-10" d="M689.76,446.23s-4,29.68,29.35,31.5C720,458.27,709.21,449.36,689.76,446.23Z"/><path class="cls-10" d="M716.94,446s-2.4-25.79,32.35-26.3C745.88,438.85,736.61,447.22,716.94,446Z"/><path class="cls-10" d="M690.21,420s1.15,29.93,34.35,25.95C722.1,426.58,709.91,419.66,690.21,420Z"/><path class="cls-10" d="M716.93,415s-6.81-25,27.32-31.5C744.21,403,736.52,412.83,716.93,415Z"/><path class="cls-10" d="M686.11,394s6.31,29.28,38.32,19.63C718.67,395,705.47,390.3,686.11,394Z"/><path class="cls-10" d="M711.58,384.49s-11-23.44,21.46-35.75C736.36,367.94,730.49,379,711.58,384.49Z"/><path class="cls-10" d="M677.58,369.11s11.28,27.76,41.14,12.71C709.83,364.49,696,362.14,677.58,369.11Z"/><path class="cls-10" d="M701,355.36s-14.92-21.17,15-38.91C722.58,334.78,718.71,346.65,701,355.36Z"/><path class="cls-10" d="M664.89,346.09s15.9,25.39,42.72,5.41C695.85,336,681.84,336,664.89,346.09Z"/><path class="cls-10" d="M685.6,328.5s-18.35-18.28,8-40.92C703.28,304.5,701.51,316.87,685.6,328.5Z"/><path class="cls-10" d="M648.41,325.61s20,22.26,43-2.05C677.16,310.29,663.37,312.79,648.41,325.61Z"/><path class="cls-10" d="M664.05,302.71s-18.59-13,.73-36.51C675.67,279.33,676,290.27,664.05,302.71Z"/><path class="cls-10" d="M654.15,289.16s-20,10.72-32.24-17.14C638.54,268.24,648.45,272.87,654.15,289.16Z"/><path class="cls-10" d="M631.53,305.85s20.66,16.17,36.79-8.28C654,288.28,642.49,292.52,631.53,305.85Z"/><path class="cls-10" d="M539,565A128.18,128.18,0,1,1,667.18,436.77,128.32,128.32,0,0,1,539,565Zm-.42-236.3A108.13,108.13,0,1,0,646.7,436.77,108.25,108.25,0,0,0,538.58,328.65Z"/><path class="cls-10" d="M541.75,601.63a242.76,242.76,0,0,0-34.41,2.48c-12.93,1.7-21.08,2.76-35.9-2.61-67.08-26.71-114.61-92.3-114.61-168.78a181.22,181.22,0,0,1,62.59-137.06l-5.17-2.77c-2.75,2.45-5.44,5-8.06,7.59A187.12,187.12,0,0,0,465.63,605l.56.23-.11.27c2.94,1.17,5.65,2.12,8.19,2.88l.58.22v0c12.94,3.79,21.43,2.69,33.22,1.14a237.35,237.35,0,0,1,33.67-2.44c38.68,0,59.69,30.84,59.9,31.15l4.72-3.14C605.46,633.93,583.55,601.63,541.75,601.63Z"/><path class="cls-10" d="M458.57,591.93s-21.06-15.08-39,14.66C437.82,613.32,449.73,609.54,458.57,591.93Z"/><path class="cls-10" d="M449.58,555.72s25.27,16.1,5.08,42.76C439.22,586.6,439.4,572.59,449.58,555.72Z"/><path class="cls-10" d="M431.83,576.3s-18.14-18.5-41,7.69C407.7,593.78,420.07,592.12,431.83,576.3Z"/><path class="cls-10" d="M429.23,539.08s22.1,20.22-2.38,43C413.69,567.71,416.29,553.94,429.23,539.08Z"/><path class="cls-10" d="M408.19,556.28s-14.67-21.35-41.69.5C381.4,569.33,393.88,569.83,408.19,556.28Z"/><path class="cls-10" d="M412.06,519.17s18.28,23.74-9.78,41.94C391.81,544.69,396.75,531.57,412.06,519.17Z"/><path class="cls-10" d="M388.36,532.48s-10.75-23.56-41.15-6.71C359.72,540.71,371.92,543.35,388.36,532.48Z"/><path class="cls-10" d="M398.59,496.6s13.9,26.54-16.88,39.62C374.23,518.23,381.36,506.17,398.59,496.6Z"/><path class="cls-10" d="M373,505.61s-6.53-25.07-39.37-13.72C343.31,508.76,354.88,513.48,373,505.61Z"/><path class="cls-10" d="M389.22,472s9.11,28.54-23.47,36.1C361.49,489.13,370.6,478.48,389.22,472Z"/><path class="cls-10" d="M362.41,476.48s-2.1-25.81-36.41-20.31C332.67,474.47,343.25,481.11,362.41,476.48Z"/><path class="cls-10" d="M384.24,446.23s4,29.68-29.36,31.5C354,458.27,364.78,449.36,384.24,446.23Z"/><path class="cls-10" d="M357.06,446s2.4-25.79-32.35-26.3C328.12,438.85,337.39,447.22,357.06,446Z"/><path class="cls-10" d="M383.79,420s-1.15,29.93-34.35,25.95C351.9,426.58,364.09,419.66,383.79,420Z"/><path class="cls-10" d="M357.07,415s6.81-25-27.32-31.5C329.79,403,337.48,412.83,357.07,415Z"/><path class="cls-10" d="M387.89,394s-6.31,29.28-38.32,19.63C355.33,395,368.53,390.3,387.89,394Z"/><path class="cls-10" d="M362.42,384.49s11-23.44-21.46-35.75C337.64,367.94,343.51,379,362.42,384.49Z"/><path class="cls-10" d="M396.42,369.11s-11.28,27.76-41.14,12.71C364.17,364.49,378,362.14,396.42,369.11Z"/><path class="cls-10" d="M373,355.36s14.92-21.17-15-38.91C351.42,334.78,355.29,346.65,373,355.36Z"/><path class="cls-10" d="M409.11,346.09s-15.9,25.39-42.72,5.41C378.15,336,392.16,336,409.11,346.09Z"/><path class="cls-10" d="M388.4,328.5s18.35-18.28-8-40.92C370.72,304.5,372.49,316.87,388.4,328.5Z"/><path class="cls-10" d="M425.59,325.61s-20,22.26-43-2.05C396.84,310.29,410.63,312.79,425.59,325.61Z"/><path class="cls-10" d="M411.11,301.8s17.39-12.15-.68-34.14C400.24,279.94,399.92,290.16,411.11,301.8Z"/><path class="cls-10" d="M441.52,304.74S422.2,319.85,407.11,297C420.49,288.31,431.27,292.27,441.52,304.74Z"/><path class="cls-10" d="M445.49,271.79s-.54,21.7-24.64,19.15C422.44,276.91,431.21,271.78,445.49,271.79Z"/></svg>