<svg id="Capa_1" data-name="Capa 1" xmlns="http://www.w3.org/2000/svg" viewBox="0 0 1080 1080"><defs><style>.cls-1{font-size:120.93px;font-family:Montserrat-Black, Montserrat;font-weight:800;letter-spacing:0.08em;}.cls-1,.cls-10{fill:#09182d;}.cls-2{letter-spacing:0.07em;}.cls-3{letter-spacing:0.06em;}.cls-4{font-size:35.27px;font-family:Montserrat-ExtraLight, Montserrat;font-weight:200;letter-spacing:1em;}.cls-4,.cls-8,.cls-9{fill:#d01700;}.cls-5{letter-spacing:0.99em;}.cls-6{letter-spacing:0.99em;}.cls-7{letter-spacing:0.99em;}.cls-12,.cls-8{fill-rule:evenodd;}.cls-11{fill:#f7931e;}.cls-12{fill:#fbb03b;}</style></defs><text class="cls-1" transform="translate(149.83 999.45)">HA<tspan class="cls-2" x="212.83" y="0">L</tspan><tspan class="cls-3" x="295.3" y="0">C</tspan><tspan x="392.53" y="0">ONES</tspan></text><text class="cls-4" transform="translate(237.22 882.14)">UN<tspan class="cls-5" x="127.26" y="0">I</tspan><tspan class="cls-6" x="172.44" y="0">V</tspan><tspan x="231.06" y="0">ERSI</tspan><tspan class="cls-7" x="452.55" y="0">D</tspan><tspan x="516.61" y="0">AD</tspan></text><path class="cls-8" d="M529.1,363.54s3-3.53,8.75-2.13c8.2,2,12.74,14.06,14.87,20.87,2.93,9.33,4.41,22.46-1,38.08-11.05,31.85-48.15,47.8-48.15,47.8s36.35-20.34,44.7-50.17c5.17-18.44.38-32.84-4-41.15-10.62,35.55-70.1,46.49-86.38,128.88,18-21.13,44.12-22.35,64-37.75,20.75-16.09,36.78-36.09,38.35-62.67,2,37-24.62,59.41-41.92,73.28,0,0,45.94-17.64,62.57-52.41,6.5-13.59,6.93-23.75,5-31.09a61,61,0,0,0,.12-23.26c-4.36-21-26-37.06-46.82-22.71-1.35.93-10.94,2.17-10.07,14.43Z"/><path class="cls-9" d="M789.61,469.07c-21,118.78-124.79,209-249.61,209s-228.57-90.22-249.6-209H180.14C202.08,648.32,354.83,787.14,540,787.14S877.92,648.32,899.86,469.07Z"/><path class="cls-10" d="M289.84,383.4C309.52,263,414,171.07,540,171.07S770.49,263,790.16,383.4H900.25C879.81,202.54,726.32,62,540,62S200.19,202.54,179.75,383.4Z"/><path class="cls-11" d="M721.48,348.6a198.42,198.42,0,0,0-42.6-63.19q-5.58-5.57-11.54-10.65l-4,4.29a192.66,192.66,0,0,1,68,146.92c0,81.2-50.41,150.83-121.57,179.29-15.94,5.84-24.62,4.7-38.46,2.89a255.89,255.89,0,0,0-36.56-2.65c-44.43,0-67.72,34.34-68.69,35.8l5,3.33c.23-.33,22.55-33.1,63.68-33.1a250.52,250.52,0,0,1,35.78,2.59c12.83,1.68,22,2.88,36.31-1.51h0c2.59-.79,5.34-1.76,8.32-3l-.11-.27.63-.26A199,199,0,0,0,721.48,348.6Z"/><path class="cls-11" d="M620.17,595.2s22.39-16,41.49,15.58C642.22,617.93,629.57,613.91,620.17,595.2Z"/><path class="cls-11" d="M629.72,556.71s-26.84,17.11-5.39,45.45C640.74,589.53,640.55,574.64,629.72,556.71Z"/><path class="cls-11" d="M648.6,578.58s19.28-19.66,43.55,8.18C674.25,597.17,661.09,595.39,648.6,578.58Z"/><path class="cls-11" d="M651.36,539s-23.5,21.49,2.53,45.7C667.88,569.45,665.11,554.81,651.36,539Z"/><path class="cls-11" d="M673.73,557.3s15.59-22.69,44.31.54C702.2,571.18,688.93,571.71,673.73,557.3Z"/><path class="cls-11" d="M669.6,517.87s-19.42,25.22,10.4,44.57C691.14,545,685.88,531,669.6,517.87Z"/><path class="cls-11" d="M694.8,532s11.43-25.05,43.73-7.14C725.24,540.75,712.27,543.56,694.8,532Z"/><path class="cls-11" d="M683.92,493.87S669.15,522.08,701.86,536C709.82,516.86,702.24,504,683.92,493.87Z"/><path class="cls-11" d="M711.18,503.45s6.94-26.65,41.85-14.59C742.68,506.8,730.39,511.81,711.18,503.45Z"/><path class="cls-11" d="M693.88,467.77s-9.67,30.33,25,38.37C723.36,485.93,713.68,474.61,693.88,467.77Z"/><path class="cls-11" d="M722.38,472.49s2.23-27.44,38.7-21.6C754,470.35,742.74,477.41,722.38,472.49Z"/><path class="cls-11" d="M699.18,440.33s-4.29,31.55,31.2,33.49C731.35,453.13,719.86,443.66,699.18,440.33Z"/><path class="cls-11" d="M728.07,440.06s-2.55-27.42,34.38-28C758.83,432.49,749,441.39,728.07,440.06Z"/><path class="cls-11" d="M699.65,412.39s1.23,31.82,36.52,27.59C733.56,419.44,720.6,412.1,699.65,412.39Z"/><path class="cls-11" d="M728.06,407.13s-7.24-26.56,29-33.47C757.05,394.36,748.88,404.83,728.06,407.13Z"/><path class="cls-11" d="M695.3,384.8S702,415.92,736,405.66C729.91,385.88,715.87,380.88,695.3,384.8Z"/><path class="cls-11" d="M722.37,374.7s-11.73-24.9,22.81-38C748.71,357.12,742.48,368.83,722.37,374.7Z"/><path class="cls-11" d="M686.24,358.36s12,29.5,43.73,13.52C720.51,353.45,705.83,351,686.24,358.36Z"/><path class="cls-11" d="M711.15,343.75s-15.85-22.51,15.91-41.36C734.07,321.87,730,334.49,711.15,343.75Z"/><path class="cls-11" d="M672.74,333.9s16.9,27,45.41,5.75C705.66,323.14,690.76,323.21,672.74,333.9Z"/><path class="cls-11" d="M694.76,315.19s-19.5-19.42,8.52-43.48C713.55,289.69,711.67,302.83,694.76,315.19Z"/><path class="cls-11" d="M655.23,312.13s21.3,23.66,45.71-2.18C685.79,295.84,671.13,298.49,655.23,312.13Z"/><path class="cls-11" d="M671.86,287.78s-19.77-13.8.76-38.8C684.2,262.94,684.57,274.56,671.86,287.78Z"/><path class="cls-11" d="M661.33,273.38s-21.25,11.4-34.27-18.21C644.74,251.15,655.27,256.06,661.33,273.38Z"/><path class="cls-11" d="M637.29,291.12s22,17.18,39.1-8.8C661.18,272.45,648.94,277,637.29,291.12Z"/><path class="cls-10" d="M538.94,566.52c-75.12,0-136.24-61.12-136.24-136.24s61.12-136.23,136.24-136.23,136.24,61.11,136.24,136.23S614.06,566.52,538.94,566.52Zm-.45-251.17A114.93,114.93,0,1,0,653.41,430.28,115.06,115.06,0,0,0,538.49,315.35Z"/><path class="cls-11" d="M541.86,605.5a255.93,255.93,0,0,0-36.57,2.65c-13.75,1.8-22.41,2.93-38.16-2.78C395.83,577,345.31,507.27,345.31,426a192.65,192.65,0,0,1,66.52-145.68l-5.49-2.94c-2.92,2.6-5.79,5.28-8.57,8.06A198.89,198.89,0,0,0,461,609.12l.6.24-.12.29c3.13,1.24,6,2.25,8.7,3.07l.62.23,0-.05c13.75,4,22.77,2.86,35.3,1.22a250.56,250.56,0,0,1,35.79-2.59c41.12,0,63.45,32.77,63.67,33.1l5-3.33C609.58,639.84,586.29,605.5,541.86,605.5Z"/><path class="cls-11" d="M453.45,595.2s-22.38-16-41.48,15.58C431.4,617.93,444.05,613.91,453.45,595.2Z"/><path class="cls-11" d="M443.9,556.71s26.85,17.11,5.4,45.45C432.88,589.53,433.08,574.64,443.9,556.71Z"/><path class="cls-11" d="M425,578.58s-19.27-19.66-43.55,8.18C399.37,597.17,412.53,595.39,425,578.58Z"/><path class="cls-11" d="M422.27,539s23.49,21.49-2.54,45.7C405.74,569.45,408.51,554.81,422.27,539Z"/><path class="cls-11" d="M399.9,557.3s-15.59-22.69-44.31.54C371.42,571.18,384.69,571.71,399.9,557.3Z"/><path class="cls-11" d="M404,517.87s19.42,25.22-10.4,44.57C382.49,545,387.74,531,404,517.87Z"/><path class="cls-11" d="M378.82,532s-11.43-25.05-43.73-7.14C348.38,540.75,361.35,543.56,378.82,532Z"/><path class="cls-11" d="M389.7,493.87s14.77,28.21-17.94,42.11C363.8,516.86,371.38,504,389.7,493.87Z"/><path class="cls-11" d="M362.44,503.45s-6.93-26.65-41.84-14.59C330.94,506.8,343.24,511.81,362.44,503.45Z"/><path class="cls-11" d="M379.74,467.77s9.68,30.33-24.95,38.37C350.26,485.93,359.94,474.61,379.74,467.77Z"/><path class="cls-11" d="M351.24,472.49s-2.23-27.44-38.7-21.6C319.63,470.35,330.88,477.41,351.24,472.49Z"/><path class="cls-11" d="M374.44,440.33s4.29,31.55-31.2,33.49C342.27,453.13,353.76,443.66,374.44,440.33Z"/><path class="cls-11" d="M345.55,440.06s2.55-27.42-34.38-28C314.8,432.49,324.65,441.39,345.55,440.06Z"/><path class="cls-11" d="M374,412.39s-1.23,31.82-36.52,27.59C340.06,419.44,353,412.1,374,412.39Z"/><path class="cls-11" d="M345.56,407.13s7.25-26.56-29-33.47C316.57,394.36,324.74,404.83,345.56,407.13Z"/><path class="cls-11" d="M378.32,384.8s-6.7,31.12-40.73,20.86C343.71,385.88,357.75,380.88,378.32,384.8Z"/><path class="cls-11" d="M351.25,374.7s11.73-24.9-22.81-38C324.91,357.12,331.15,368.83,351.25,374.7Z"/><path class="cls-11" d="M387.39,358.36s-12,29.5-43.73,13.52C353.11,353.45,367.79,351,387.39,358.36Z"/><path class="cls-11" d="M362.47,343.75s15.85-22.51-15.91-41.36C339.56,321.87,343.67,334.49,362.47,343.75Z"/><path class="cls-11" d="M400.88,333.9s-16.9,27-45.41,5.75C368,323.14,382.86,323.21,400.88,333.9Z"/><path class="cls-11" d="M378.86,315.19s19.51-19.42-8.52-43.48C360.07,289.69,362,302.83,378.86,315.19Z"/><path class="cls-11" d="M418.4,312.13s-21.31,23.66-45.72-2.18C387.84,295.84,402.5,298.49,418.4,312.13Z"/><path class="cls-11" d="M403,286.81s18.48-12.91-.72-36.28C391.45,263.58,391.11,274.45,403,286.81Z"/><path class="cls-11" d="M435.32,289.94s-20.53,16.06-36.56-8.23C413,272.48,424.43,276.69,435.32,289.94Z"/><path class="cls-11" d="M439.54,254.92S439,278,413.36,275.28C415,260.37,424.36,254.91,439.54,254.92Z"/><path class="cls-12" d="M540,175l3.21,24.39a28.56,28.56,0,0,0-3.22-.18,29.12,29.12,0,0,0-3.39.2Z"/><path class="cls-12" d="M540,279.17l3.21-24.39A28.55,28.55,0,0,1,540,255a29.11,29.11,0,0,1-3.39-.21Z"/><path class="cls-12" d="M566,182.06l-9.4,22.68a27.69,27.69,0,0,0-5.72-3.29Z"/><path class="cls-12" d="M514,272.24l15-19.55a27.66,27.66,0,0,1-5.72-3.33Z"/><path class="cls-12" d="M585.09,201.11l-19.49,15a28.2,28.2,0,0,0-3.32-5.71Z"/><path class="cls-12" d="M494.91,253.18l22.75-9.42a27.69,27.69,0,0,1-3.3-5.74Z"/><path class="cls-12" d="M592.07,227.15l-24.4,3.21a27,27,0,0,0,.19-3.26,26.44,26.44,0,0,0-.2-3.35Z"/><path class="cls-12" d="M487.93,227.15l24.4,3.21a27,27,0,0,1-.19-3.26,26.44,26.44,0,0,1,.2-3.35Z"/><path class="cls-12" d="M585,253.17l-22.7-9.41a28,28,0,0,0,3.29-5.72Z"/><path class="cls-12" d="M494.86,201.1l19.54,15a27.55,27.55,0,0,1,3.32-5.72Z"/><path class="cls-12" d="M566,272.23,551,252.7a28,28,0,0,0,5.72-3.31Z"/><path class="cls-12" d="M513.92,182l9.41,22.73a27.36,27.36,0,0,1,5.73-3.3Z"/><path class="cls-12" d="M540.23,207.51a19.6,19.6,0,1,1-19.08,19.59,19.34,19.34,0,0,1,19.08-19.59m0-5.06a24.66,24.66,0,1,1-24.15,24.65A24.4,24.4,0,0,1,540.23,202.45Z"/></svg>