<svg id="Capa_1" data-name="Capa 1" xmlns="http://www.w3.org/2000/svg" viewBox="0 0 1080 1080"><defs><style>.cls-1{fill:#f7931e;fill-rule:evenodd;}</style></defs><path class="cls-1" d="M540.11,122l25.75,195.81a224.61,224.61,0,0,0-53.09.15Z"/><path class="cls-1" d="M540.11,958l25.75-195.81a223.92,223.92,0,0,1-53.09-.16Z"/><path class="cls-1" d="M749,178.4,673.53,360.53a223,223,0,0,0-45.93-26.41Z"/><path class="cls-1" d="M331,902.39,451.4,745.44a222.91,222.91,0,0,1-46-26.75Z"/><path class="cls-1" d="M902,331.4,745.47,451.47a223.28,223.28,0,0,0-26.64-45.85Z"/><path class="cls-1" d="M178,749.4l182.65-75.69a223.55,223.55,0,0,1-26.5-46.05Z"/><path class="cls-1" d="M958,540.4,762.16,566.15a224.44,224.44,0,0,0-.09-53.08Z"/><path class="cls-1" d="M122,540.4l195.84,25.75a224.44,224.44,0,0,1,.09-53.08Z"/><path class="cls-1" d="M901.6,749.29,719.31,673.75a223.57,223.57,0,0,0,26.48-45.94Z"/><path class="cls-1" d="M177.61,331.29,334.46,451.61a224,224,0,0,1,26.68-45.95Z"/><path class="cls-1" d="M748.6,902.29,628.37,745.54a223.15,223.15,0,0,0,45.92-26.64Z"/><path class="cls-1" d="M330.6,178.29l75.6,182.43a223.68,223.68,0,0,1,46-26.5Z"/><path class="cls-1" d="M541.84,382.76C626.44,382.76,695,453.16,695,540S626.44,697.24,541.84,697.24,388.66,626.84,388.66,540s68.58-157.24,153.18-157.24m0-40.67c107.07,0,193.85,88.61,193.85,197.91S648.91,737.91,541.84,737.91,348,649.3,348,540,434.78,342.09,541.84,342.09Z"/></svg>